<?xml version="1.0" standalone="no"?>
<!DOCTYPE svg PUBLIC "-//W3C//DTD SVG 20010904//EN"
 "http://www.w3.org/TR/2001/REC-SVG-20010904/DTD/svg10.dtd">
<svg version="1.0" xmlns="http://www.w3.org/2000/svg"
 width="700.000000pt" height="700.000000pt" viewBox="0 0 700.000000 700.000000"
 preserveAspectRatio="xMidYMid meet">
<metadata>
Created by potrace 1.14, written by Peter Selinger 2001-2017
</metadata>
<g transform="translate(0.000000,700.000000) scale(0.100000,-0.100000)"
fill="#000000" stroke="none">
<path d="M835 5143 c-298 -42 -572 -239 -707 -508 -38 -75 -74 -199 -88 -300
-12 -97 -10 -1677 3 -1725 3 -14 12 -47 18 -75 17 -74 79 -212 126 -281 135
-197 294 -311 548 -387 l70 -22 2655 -2 c2557 -2 2658 -2 2746 16 366 75 655
367 730 736 4 22 9 423 11 890 l2 850 -25 100 c-88 343 -327 588 -669 686
l-80 23 -2655 2 c-1460 1 -2668 -1 -2685 -3z m308 -526 c166 -82 256 -238 245
-428 -4 -65 -11 -91 -41 -152 -136 -274 -481 -336 -696 -125 -87 86 -131 189
-132 314 -2 153 92 312 223 380 87 45 130 55 230 51 88 -4 105 -8 171 -40z
m5070 0 c157 -78 249 -222 249 -389 0 -365 -409 -571 -699 -352 -219 166 -231
493 -25 675 54 47 125 86 173 94 18 3 36 9 39 12 3 3 47 3 98 1 81 -5 101 -10
165 -41z m-1372 -121 c180 -29 280 -249 185 -409 -33 -57 -72 -92 -131 -119
l-50 -22 -1345 -1 c-1199 0 -1350 2 -1392 16 -171 57 -242 255 -147 409 47 77
114 118 209 129 71 8 2619 5 2671 -3z m-3759 -1311 c114 -34 211 -119 267
-235 35 -72 36 -79 36 -185 0 -107 -1 -112 -37 -185 -85 -172 -233 -258 -425
-248 -229 12 -407 208 -404 445 3 285 287 490 563 408z m5065 1 c72 -19 139
-60 196 -120 162 -170 159 -441 -6 -607 -235 -236 -629 -138 -728 182 -10 33
-19 85 -19 114 0 57 17 153 30 170 4 6 11 21 15 35 31 101 199 224 325 237 25
3 46 6 48 8 6 6 87 -6 139 -19z m-1281 -154 c168 -49 250 -254 160 -405 -41
-70 -108 -119 -183 -133 -21 -4 -638 -7 -1371 -7 l-1333 0 -67 34 c-108 55
-162 154 -153 278 8 106 96 207 207 235 64 16 2682 14 2740 -2z"/>
</g>
</svg>
