<svg xmlns="http://www.w3.org/2000/svg" viewBox="0 0 80 80">
	<path fill="#ff972a" d="M40.79,1,46,10.64a.9.9,0,0,0,1.32.3l8.89-6.45a.91.91,0,0,1,1.43.69l.5,11a.9.9,0,0,0,1.06.84L70,15.05a.9.9,0,0,1,1,1.23L66.7,26.39a.91.91,0,0,0,.59,1.22l10.58,2.93a.91.91,0,0,1,.36,1.55L70,39.32a.91.91,0,0,0,0,1.36l8.27,7.23a.91.91,0,0,1-.36,1.55L67.29,52.39a.91.91,0,0,0-.59,1.22L71,63.72A.9.9,0,0,1,70,65L59.21,63a.9.9,0,0,0-1.06.84l-.5,11a.91.91,0,0,1-1.43.69l-8.89-6.45a.9.9,0,0,0-1.32.3L40.79,79a.9.9,0,0,1-1.58,0L34,69.36a.9.9,0,0,0-1.32-.3l-8.89,6.45a.91.91,0,0,1-1.43-.69l-.5-11A.9.9,0,0,0,20.79,63L10,65a.9.9,0,0,1-1-1.23L13.3,53.61a.91.91,0,0,0-.59-1.22L2.13,49.46a.91.91,0,0,1-.36-1.55L10,40.68a.91.91,0,0,0,0-1.36L1.77,32.09a.91.91,0,0,1,.36-1.55l10.58-2.93a.91.91,0,0,0,.59-1.22L9,16.28a.9.9,0,0,1,1-1.23L20.79,17a.9.9,0,0,0,1.06-.84l.5-11a.91.91,0,0,1,1.43-.69l8.89,6.45a.9.9,0,0,0,1.32-.3L39.21,1A.9.9,0,0,1,40.79,1Z"/>
	<circle fill="#ffb42a" cx="40" cy="40" r="23.38" />
</svg>
